<svg viewBox="0 0 100 100" fill="none" xmlns="http://www.w3.org/2000/svg">
<path d="M16.7146 0C7.45468 0 0 7.44573 0 16.6945V67.6085C0 67.7866 0.0172241 67.96 0.0227464 68.1367H0.0759997C0.0512898 67.9446 0.0298782 67.7521 0.0117746 67.5593C0.011716 66.3061 0.15085 65.0568 0.426562 63.835C0.702385 62.6131 1.11306 61.4264 1.65085 60.2972C2.1886 59.168 2.85007 58.1034 3.62283 57.1235C4.3956 56.1437 5.27475 55.2548 6.24375 54.4734C7.21277 53.692 8.26553 53.023 9.38222 52.4792C10.4988 51.9355 11.6723 51.5203 12.8806 51.2414C13.2457 51.1873 13.6124 51.1454 13.9802 51.1161V28.9476C13.9802 20.8635 20.6141 14.3555 28.8545 14.3555H64.9431C73.1835 14.3555 79.8174 20.8635 79.8174 28.9476V33.0712C83.6984 32.4531 87.2355 30.4591 89.7961 27.4459C92.3567 24.4326 93.7738 20.5966 93.7941 16.6237C93.7557 7.40816 86.3189 0 77.083 0H16.7146Z" fill="url(#paint0_linear_1056_2535)"/>
<path d="M9.28297 82.575C8.21777 82.0498 7.21143 81.4105 6.28125 80.668C7.20615 81.4051 8.21169 82.0455 9.28297 82.575Z" fill="#AC560E" fill-opacity="0.602941"/>
<path d="M12.7724 83.8361C11.6421 83.5667 10.543 83.1778 9.49316 82.6758C10.5307 83.1708 11.6285 83.5615 12.7724 83.8361Z" fill="#AC560E" fill-opacity="0.602941"/>
<path d="M93.7979 16.623C93.7778 20.596 92.3607 24.4322 89.8001 27.4456C87.2395 30.4589 83.7024 32.453 79.8212 33.0711V55.3553C79.8212 63.4394 73.1873 69.9474 64.9469 69.9474H32.8539H28.8583C20.6179 69.9474 13.984 63.4394 13.984 55.3553V51.116C13.6162 51.1453 13.2495 51.1871 12.8845 51.2413C11.6762 51.5202 10.5027 51.9354 9.38607 52.4791C8.26937 53.0229 7.21662 53.6918 6.2476 54.4733C5.2786 55.2547 4.39945 56.1436 3.62668 57.1234C2.85392 58.1033 2.19245 59.1679 1.6547 60.2971C1.11691 61.4263 0.706235 62.613 0.430412 63.8349C0.154701 65.0567 0.0155664 66.306 0.015625 67.5592C0.0155465 68.8125 0.154681 70.0619 0.430412 71.2838C0.706235 72.5057 1.11691 73.6924 1.6547 74.8216C2.19246 75.9507 2.85394 77.0152 3.62668 77.995C4.39192 78.9628 5.26108 79.8417 6.21816 80.6155C6.24009 80.6331 6.26198 80.6508 6.284 80.6684C7.21417 81.4109 8.22051 82.0503 9.28572 82.5755C9.35476 82.6096 9.42352 82.6441 9.49311 82.6773C10.5429 83.1793 11.642 83.5682 12.7723 83.8376C12.8459 83.8552 12.9195 83.8727 12.9934 83.8894C13.5888 84.0242 14.1911 84.1256 14.7976 84.1931C15.4278 84.2647 16.0684 84.3029 16.7184 84.3029H77.0868C86.3467 84.3029 93.8014 76.8572 93.8014 67.6084V16.6944C93.8014 16.6703 93.798 16.6471 93.7979 16.623Z" fill="url(#paint1_linear_1056_2535)"/>
<path d="M46.9016 32.8291C51.0752 32.8291 54.4585 29.6665 54.4585 25.7652C54.4585 21.8638 51.0752 18.7012 46.9016 18.7012C42.7281 18.7012 39.3447 21.8638 39.3447 25.7652C39.3447 29.6665 42.7281 32.8291 46.9016 32.8291Z" fill="url(#paint2_linear_1056_2535)"/>
<path d="M67.9279 32.9407C71.5298 32.9407 74.4496 30.2113 74.4496 26.8444C74.4496 23.4775 71.5298 20.748 67.9279 20.748C64.3261 20.748 61.4062 23.4775 61.4062 26.8444C61.4062 30.2113 64.3261 32.9407 67.9279 32.9407Z" fill="url(#paint3_linear_1056_2535)"/>
<path d="M25.6545 33.0383C29.2563 33.0383 32.1762 30.3089 32.1762 26.942C32.1762 23.5751 29.2563 20.8457 25.6545 20.8457C22.0527 20.8457 19.1328 23.5751 19.1328 26.942C19.1328 30.3089 22.0527 33.0383 25.6545 33.0383Z" fill="url(#paint4_linear_1056_2535)"/>
<path d="M69.0097 35.2051C65.564 35.2051 62.1208 35.8925 59.2817 37.2618C62.0548 38.5993 64.2515 40.5871 65.302 43.2308C67.5069 48.7795 65.473 59.2256 61.8218 68.0026H64.6191C71.5798 68.0026 77.1837 61.5195 77.1837 53.4664V36.607C74.6837 35.6771 71.8492 35.2051 69.0097 35.2051Z" fill="url(#paint5_linear_1056_2535)"/>
<path d="M23.2444 35.2051C20.8742 35.2051 18.5087 35.537 16.3359 36.1849V53.4664C16.3359 61.5195 21.9398 68.0026 28.9005 68.0026H31.5284C27.8772 59.2256 25.8433 48.7795 28.0482 43.2308C29.029 40.7625 31.0137 38.871 33.5287 37.5414C30.5902 35.9849 26.9181 35.2051 23.2444 35.2051Z" fill="url(#paint6_linear_1056_2535)"/>
<path d="M46.8097 35.2051C39.9985 35.2051 33.1874 37.8805 31.0614 43.2308C28.8565 48.7795 30.8904 59.2256 34.5416 68.0026H59.0777C62.7289 59.2256 64.7628 48.7795 62.5579 43.2308C60.4319 37.8805 53.6208 35.2051 46.8097 35.2051Z" fill="url(#paint7_linear_1056_2535)"/>
<path d="M88.892 82.2285C86.078 84.3806 82.5651 85.6711 78.7313 85.6711H67.8984C75.9651 99.562 87.7874 99.376 99.5197 99.9996C95.6521 95.9089 90.6134 90.5017 88.892 82.2285Z" fill="url(#paint8_linear_1056_2535)"/>
<defs>
<linearGradient id="paint0_linear_1056_2535" x1="-6.89697" y1="29.4426" x2="38.0058" y2="62.3378" gradientUnits="userSpaceOnUse">
<stop stop-color="#59FFDB"/>
<stop offset="1" stop-color="#00C89D"/>
</linearGradient>
<linearGradient id="paint1_linear_1056_2535" x1="99.1554" y1="62.56" x2="59.312" y2="37.2185" gradientUnits="userSpaceOnUse">
<stop stop-color="#59FFDB"/>
<stop offset="1" stop-color="#00C89D"/>
</linearGradient>
<linearGradient id="paint2_linear_1056_2535" x1="58.052" y1="14.6635" x2="10.4245" y2="59.0597" gradientUnits="userSpaceOnUse">
<stop stop-color="#59FFDB"/>
<stop offset="1" stop-color="#00C89D"/>
</linearGradient>
<linearGradient id="paint3_linear_1056_2535" x1="58.8701" y1="26.4307" x2="76.4078" y2="26.705" gradientUnits="userSpaceOnUse">
<stop stop-color="#59FFDB"/>
<stop offset="1" stop-color="#00C89D"/>
</linearGradient>
<linearGradient id="paint4_linear_1056_2535" x1="34.2057" y1="26.979" x2="14.2018" y2="26.1559" gradientUnits="userSpaceOnUse">
<stop stop-color="#59FFDB"/>
<stop offset="1" stop-color="#00C89D"/>
</linearGradient>
<linearGradient id="paint5_linear_1056_2535" x1="55.3083" y1="49.1487" x2="86.8215" y2="49.1487" gradientUnits="userSpaceOnUse">
<stop stop-color="#59FFDB"/>
<stop offset="1" stop-color="#00C89D"/>
</linearGradient>
<linearGradient id="paint6_linear_1056_2535" x1="38.0419" y1="51.612" x2="5.15883" y2="53.2581" gradientUnits="userSpaceOnUse">
<stop stop-color="#59FFDB"/>
<stop offset="1" stop-color="#00C89D"/>
</linearGradient>
<linearGradient id="paint7_linear_1056_2535" x1="68.863" y1="30.6995" x2="-11.4404" y2="122.724" gradientUnits="userSpaceOnUse">
<stop stop-color="#59FFDB"/>
<stop offset="1" stop-color="#00C89D"/>
</linearGradient>
<linearGradient id="paint8_linear_1056_2535" x1="104.717" y1="104.436" x2="103.75" y2="83.9209" gradientUnits="userSpaceOnUse">
<stop stop-color="#59FFDB"/>
<stop offset="1" stop-color="#00C89D"/>
</linearGradient>
</defs>
</svg>
